<?xml version="1.0" standalone="no"?>
<!DOCTYPE svg PUBLIC "-//W3C//DTD SVG 20010904//EN"
 "http://www.w3.org/TR/2001/REC-SVG-20010904/DTD/svg10.dtd">
<svg version="1.0" xmlns="http://www.w3.org/2000/svg"
 width="202.000000pt" height="202.000000pt" viewBox="0 0 202.000000 202.000000"
 preserveAspectRatio="xMidYMid meet">
<metadata>
Created by potrace 1.11, written by Peter Selinger 2001-2013
</metadata>
<g transform="translate(0.000000,202.000000) scale(0.100000,-0.100000)"
fill="#000000" stroke="none">
<path d="M424 1825 c-80 -14 -118 -31 -190 -86 -98 -75 -183 -234 -210 -394
-4 -22 -8 -49 -10 -60 -7 -34 -6 -227 1 -290 27 -241 140 -433 300 -510 l72
-35 6 -49 c11 -89 61 -159 140 -195 53 -24 126 -34 255 -36 l122 -1 1 73 c0
40 2 88 3 106 1 17 -2 33 -8 33 -12 2 -20 1 -146 -1 -99 -2 -116 3 -135 41
l-15 28 73 35 c119 59 191 140 247 279 74 186 83 489 19 696 -53 175 -158 296
-300 349 -73 27 -137 32 -225 17z m179 -238 c49 -37 74 -75 102 -154 53 -154
55 -422 4 -586 -23 -72 -78 -145 -127 -169 -39 -20 -104 -22 -144 -5 -123 51
-187 231 -183 512 4 234 52 359 161 416 56 28 140 22 187 -14z"/>
<path d="M1330 1701 l0 -100 120 2 c73 1 121 -2 123 -8 7 -16 0 -778 -7 -805
-3 -14 -13 -42 -23 -63 -30 -68 -124 -96 -206 -62 -44 18 -122 106 -104 117 7
5 8 8 1 8 -5 0 -29 -21 -52 -47 -22 -27 -52 -61 -66 -77 -14 -16 -26 -34 -26
-40 0 -14 71 -83 116 -114 111 -76 284 -88 404 -27 53 27 120 95 149 154 48
93 53 150 55 571 l2 395 97 -2 c53 0 97 2 98 6 1 3 2 48 2 99 l2 92 -342 0
-343 0 0 -99z"/>
</g>
</svg>
