<?xml version="1.0" standalone="no"?>
<!DOCTYPE svg PUBLIC "-//W3C//DTD SVG 20010904//EN"
 "http://www.w3.org/TR/2001/REC-SVG-20010904/DTD/svg10.dtd">
<svg version="1.0" xmlns="http://www.w3.org/2000/svg"
 width="100.000000pt" height="100.000000pt" viewBox="0 0 100.000000 100.000000"
 preserveAspectRatio="xMidYMid meet">
<metadata>
Created by potrace 1.11, written by Peter Selinger 2001-2013
</metadata>
<g transform="translate(0.000000,100.000000) scale(0.100000,-0.100000)"
fill="#000000" stroke="none">
<path d="M183 769 c-91 -40 -143 -125 -151 -247 -8 -118 44 -219 135 -263 59
-29 166 -35 220 -13 35 15 36 15 72 -20 l37 -36 28 29 29 30 -32 26 c-35 30
-37 38 -18 57 39 38 60 161 43 253 -15 87 -93 173 -178 196 -52 14 -138 8
-185 -12z m179 -97 c58 -33 92 -156 65 -237 -15 -46 -24 -51 -50 -27 -30 28
-38 28 -67 -3 l-24 -25 22 -16 c37 -26 27 -37 -28 -32 -106 10 -157 119 -121
256 10 37 50 83 81 95 27 10 94 4 122 -11z"/>
<path d="M830 758 c-1 -13 -1 -106 -2 -207 -1 -164 -3 -186 -20 -203 -44 -44
-105 -10 -111 63 -2 34 -3 34 -52 34 l-50 0 0 -57 c1 -96 59 -150 169 -154 74
-3 129 23 160 75 18 31 20 53 20 250 l1 216 -57 3 c-55 3 -58 2 -58 -20z"/>
</g>
</svg>
