<?xml version="1.0" standalone="no"?>
<!DOCTYPE svg PUBLIC "-//W3C//DTD SVG 20010904//EN"
 "http://www.w3.org/TR/2001/REC-SVG-20010904/DTD/svg10.dtd">
<svg version="1.0" xmlns="http://www.w3.org/2000/svg"
 width="70.000000pt" height="70.000000pt" viewBox="0 0 70.000000 70.000000"
 preserveAspectRatio="xMidYMid meet">
<metadata>
Created by potrace 1.11, written by Peter Selinger 2001-2013
</metadata>
<g transform="translate(0.000000,70.000000) scale(0.100000,-0.100000)"
fill="#000000" stroke="none">
<path d="M0 350 l0 -350 350 0 350 0 0 350 0 350 -350 0 -350 0 0 -350z m440
180 c90 -64 94 -231 8 -305 l-39 -33 47 -8 c48 -9 60 -19 46 -41 -6 -9 -28 -7
-92 12 -47 13 -96 26 -110 29 -159 34 -177 292 -25 362 44 21 125 13 165 -16z"/>
<path d="M294 511 c-79 -34 -97 -197 -28 -262 20 -19 36 -24 76 -24 45 0 53 4
78 34 75 90 36 246 -65 256 -22 3 -50 1 -61 -4z"/>
</g>
</svg>
