<?xml version="1.0" standalone="no"?>
<!DOCTYPE svg PUBLIC "-//W3C//DTD SVG 20010904//EN"
 "http://www.w3.org/TR/2001/REC-SVG-20010904/DTD/svg10.dtd">
<svg version="1.0" xmlns="http://www.w3.org/2000/svg"
 width="70.000000pt" height="70.000000pt" viewBox="0 0 70.000000 70.000000"
 preserveAspectRatio="xMidYMid meet">
<metadata>
Created by potrace 1.11, written by Peter Selinger 2001-2013
</metadata>
<g transform="translate(0.000000,70.000000) scale(0.100000,-0.100000)"
fill="#000000" stroke="none">
<path d="M0 350 l0 -350 350 0 350 0 0 350 0 350 -350 0 -350 0 0 -350z m690
0 l0 -340 -340 0 -340 0 0 340 0 340 340 0 340 0 0 -340z"/>
<path d="M128 592 c-39 -27 -50 -41 -69 -91 -40 -105 -7 -249 67 -293 18 -11
34 -27 34 -36 1 -32 28 -53 77 -61 62 -9 78 -3 79 32 1 25 -1 27 -42 27 -53 0
-57 16 -11 45 50 32 71 85 71 185 0 96 -22 155 -71 187 -34 23 -105 25 -135 5z
m115 -94 c36 -73 16 -228 -32 -241 -51 -13 -89 38 -92 124 -3 94 0 109 30 140
37 36 68 29 94 -23z"/>
<path d="M440 571 c0 -27 3 -30 38 -33 l37 -3 0 -110 c1 -60 -3 -122 -8 -138
-12 -37 -51 -46 -81 -18 -22 21 -23 21 -40 3 -21 -24 -14 -43 23 -65 57 -34
138 -12 161 44 17 40 18 54 19 177 l1 112 29 0 c26 0 30 3 29 30 l-1 30 -104
0 -103 0 0 -29z"/>
</g>
</svg>
