<?xml version="1.0" standalone="no"?>
<!DOCTYPE svg PUBLIC "-//W3C//DTD SVG 20010904//EN"
 "http://www.w3.org/TR/2001/REC-SVG-20010904/DTD/svg10.dtd">
<svg version="1.0" xmlns="http://www.w3.org/2000/svg"
 width="500.000000pt" height="500.000000pt" viewBox="0 0 500.000000 500.000000"
 preserveAspectRatio="xMidYMid meet">
<metadata>
Created by potrace 1.11, written by Peter Selinger 2001-2013
</metadata>
<g transform="translate(0.000000,500.000000) scale(0.100000,-0.100000)"
fill="#000000" stroke="none">
<path d="M1665 3393 c-280 -36 -526 -194 -672 -432 -182 -295 -169 -705 31
-984 63 -89 192 -208 283 -261 264 -156 630 -166 909 -26 l97 49 94 -86 c92
-85 94 -86 112 -67 59 61 221 247 221 253 0 4 -38 40 -85 80 l-85 72 40 73
c85 154 117 299 107 484 -14 246 -99 436 -268 598 -140 133 -286 205 -483 239
-81 14 -226 18 -301 8z m287 -373 c233 -72 380 -301 365 -565 -6 -93 -31 -195
-47 -195 -6 0 -61 46 -123 102 -61 56 -124 112 -138 125 l-25 23 -99 -111
c-54 -62 -109 -124 -121 -139 l-23 -26 140 -119 c77 -65 136 -122 132 -126
-33 -33 -256 -50 -352 -28 -112 25 -242 122 -311 229 -101 157 -109 411 -19
581 63 118 163 203 289 246 88 30 240 32 332 3z"/>
<path d="M3680 2767 c0 -686 1 -679 -74 -753 -72 -72 -182 -81 -301 -24 -33
16 -87 53 -119 82 l-59 52 -51 -55 c-28 -30 -82 -90 -119 -132 l-69 -76 21
-28 c70 -90 235 -188 368 -217 95 -21 273 -21 366 0 209 47 351 187 413 404
16 59 18 121 22 708 l3 642 -200 0 -201 0 0 -603z"/>
</g>
</svg>
