<?xml version="1.0" standalone="no"?>
<!DOCTYPE svg PUBLIC "-//W3C//DTD SVG 20010904//EN"
 "http://www.w3.org/TR/2001/REC-SVG-20010904/DTD/svg10.dtd">
<svg version="1.0" xmlns="http://www.w3.org/2000/svg"
 width="171.000000pt" height="171.000000pt" viewBox="0 0 171.000000 171.000000"
 preserveAspectRatio="xMidYMid meet">
<metadata>
Created by potrace 1.11, written by Peter Selinger 2001-2013
</metadata>
<g transform="translate(0.000000,171.000000) scale(0.100000,-0.100000)"
fill="#000000" stroke="none">
<path d="M330 1550 c-166 -50 -275 -193 -316 -415 -18 -101 -11 -301 15 -398
40 -153 126 -271 237 -324 38 -19 58 -35 60 -48 18 -125 67 -182 179 -205 42
-9 202 -16 253 -11 8 1 12 26 12 92 l0 90 -96 -5 c-94 -6 -128 1 -146 28 -16
23 -6 35 47 60 115 53 199 168 241 331 26 101 25 340 -1 450 -36 153 -127 279
-240 332 -48 22 -76 28 -140 29 -44 1 -91 -2 -105 -6z m183 -204 c77 -59 118
-202 113 -396 -5 -210 -47 -322 -136 -368 -106 -55 -202 11 -253 172 -18 61
-22 94 -22 231 0 183 13 245 68 317 61 80 158 99 230 44z"/>
<path d="M1165 1530 l-39 -5 0 -80 -1 -80 96 -1 c53 0 100 -3 105 -7 10 -6 11
-610 0 -670 -13 -80 -51 -123 -116 -130 -57 -7 -95 10 -140 60 l-42 47 -54
-59 c-29 -33 -54 -65 -54 -71 0 -21 90 -95 148 -122 49 -23 70 -27 147 -26
104 0 142 13 205 70 44 40 80 102 101 174 9 32 13 142 15 375 1 182 3 337 3
345 1 13 15 15 76 14 47 -1 78 2 82 10 4 6 8 44 8 84 0 58 -2 72 -15 72 -8 0
-121 1 -250 3 -129 1 -253 0 -275 -3z"/>
</g>
</svg>
